<svg width="22" height="36" viewBox="0 0 22 36" fill="none" xmlns="http://www.w3.org/2000/svg">
<g clip-path="url(#clip0_12768_5617)">
<path d="M11.0209 2.93302C14.1466 6.9011 15.8151 11.7944 15.7546 16.8155V18.0141L16.7859 18.6416C18.1183 19.4482 19.1121 20.6993 19.586 22.1669C19.1699 21.8605 18.7346 21.5803 18.2826 21.3278L15.5326 19.7838L15.0385 22.9001C14.9957 23.1755 14.9383 23.4485 14.8666 23.718H7.1609C7.04631 23.3655 6.95321 23.0129 6.86728 22.6463L6.24423 19.8261L3.70907 21.2362C3.28554 21.473 2.87662 21.7344 2.48446 22.0188C2.96763 20.5682 3.94062 19.3242 5.24163 18.4935L6.22274 17.866V16.7521C6.24045 11.7513 7.92906 6.89523 11.0281 2.93302H11.0209ZM11.0281 0C10.8674 0.000390307 10.7122 0.0579856 10.5912 0.162162L10.5268 0.218566C6.39717 4.76564 4.10405 10.6454 4.08147 16.745C2.32906 17.8643 1.0319 19.5543 0.416653 21.5197C-0.198589 23.485 -0.0927822 25.6007 0.715584 27.4971C1.56715 25.6455 2.9907 24.1058 4.78329 23.0975C4.96307 23.8642 5.20249 24.6161 5.49944 25.3467C5.5371 25.4871 5.62057 25.6114 5.73702 25.7006C5.85347 25.7898 5.99645 25.8388 6.14397 25.8402H16.0841C16.2846 25.8402 16.4851 25.6498 16.5854 25.3537C16.8752 24.6592 17.0772 23.9322 17.1869 23.1892C18.983 24.1932 20.4077 25.7342 21.2546 27.5887C22.1118 25.7017 22.2445 23.5727 21.6281 21.5967C21.0118 19.6206 19.6882 17.9319 17.9031 16.8437C17.9739 10.7082 15.6929 4.77179 11.5151 0.218566C11.4528 0.150085 11.3767 0.0952397 11.2916 0.0575871C11.2065 0.0199344 11.1142 0.000314749 11.0209 0L11.0281 0Z" fill="#4EA8DE"/>
<path d="M11.0201 16.1596C10.47 16.1596 9.93229 15.9993 9.47465 15.6988C9.017 15.3984 8.65994 14.9713 8.44847 14.4714C8.237 13.9714 8.18059 13.4211 8.28635 12.8896C8.39212 12.3582 8.65531 11.8695 9.04277 11.4851C9.43022 11.1007 9.9246 10.8378 10.4636 10.7296C11.0025 10.6214 11.562 10.6727 12.0714 10.8771C12.5808 11.0814 13.0173 11.4297 13.326 11.8779C13.6347 12.3261 13.8017 12.8543 13.8059 13.3958C13.8145 13.7468 13.7527 14.0959 13.6242 14.4234C13.4956 14.7508 13.3028 15.0501 13.0567 15.3041C12.8107 15.5582 12.5162 15.762 12.1901 15.9039C11.864 16.0459 11.5126 16.1232 11.1562 16.1314C11.1111 16.1385 11.0652 16.1385 11.0201 16.1314V16.1596Z" fill="#4EA8DE"/>
<path d="M14.8952 27.5959C14.716 27.5903 14.5375 27.6199 14.3701 27.6831C14.2027 27.7463 14.0498 27.8418 13.9204 27.9639C13.791 28.0861 13.6876 28.2324 13.6165 28.3944C13.5453 28.5564 13.5077 28.7308 13.5059 28.9073V33.0671C13.5059 33.4299 13.6522 33.7778 13.9128 34.0343C14.1733 34.2908 14.5267 34.4349 14.8952 34.4349C15.2637 34.4349 15.617 34.2908 15.8776 34.0343C16.1381 33.7778 16.2845 33.4299 16.2845 33.0671V28.9637C16.2902 28.7879 16.2603 28.6127 16.1966 28.4483C16.1328 28.284 16.0365 28.1338 15.9132 28.0065C15.7899 27.8792 15.6421 27.7773 15.4783 27.7068C15.3146 27.6363 15.1383 27.5986 14.9596 27.5959H14.8952Z" fill="#5E60CE"/>
<path d="M7.16081 27.5956C6.97857 27.5861 6.79626 27.6128 6.62473 27.6741C6.45319 27.7354 6.29592 27.83 6.16229 27.9524C6.02866 28.0748 5.92139 28.2223 5.84687 28.3863C5.77235 28.5503 5.7321 28.7274 5.72852 28.907V33.0668C5.72852 33.4296 5.87489 33.7775 6.13544 34.034C6.39599 34.2905 6.74937 34.4346 7.11784 34.4346C7.48631 34.4346 7.83969 34.2905 8.10024 34.034C8.36079 33.7775 8.50716 33.4296 8.50716 33.0668V28.9634C8.51289 28.7876 8.483 28.6124 8.41925 28.4481C8.3555 28.2837 8.25916 28.1335 8.13585 28.0062C8.01253 27.8789 7.86471 27.777 7.701 27.7065C7.53728 27.636 7.36096 27.5983 7.18229 27.5956H7.16081Z" fill="#5E60CE"/>
<path d="M10.9206 27.596C10.7419 27.5923 10.5642 27.6232 10.3976 27.6871C10.2311 27.751 10.079 27.8466 9.94995 27.9683C9.82093 28.0901 9.71755 28.2357 9.64571 28.3969C9.57387 28.558 9.53497 28.7315 9.53125 28.9074V34.6395C9.53125 35.0022 9.67762 35.3502 9.93817 35.6067C10.1987 35.8632 10.5521 36.0073 10.9206 36.0073C11.289 36.0073 11.6424 35.8632 11.903 35.6067C12.1635 35.3502 12.3099 35.0022 12.3099 34.6395V28.9991C12.3156 28.8232 12.2857 28.648 12.222 28.4837C12.1582 28.3194 12.0619 28.1692 11.9386 28.0418C11.8153 27.9145 11.6674 27.8127 11.5037 27.7422C11.34 27.6717 11.1637 27.634 10.985 27.6313L10.9206 27.596Z" fill="#5E60CE"/>
</g>
<defs>
<clipPath id="clip0_12768_5617">
<rect width="22" height="36" fill="white"/>
</clipPath>
</defs>
</svg>
